<?xml version="1.0" encoding="UTF-8"?><svg id="a" xmlns="http://www.w3.org/2000/svg" xmlns:xlink="http://www.w3.org/1999/xlink" viewBox="0 0 1348.96 2083.92"><defs><style>.d{fill:url(#c);}.e{fill:url(#b);}.f{fill:#7546f6;}</style><linearGradient id="b" x1="901.04" y1="317.65" x2="661.27" y2="741.12" gradientTransform="matrix(1, 0, 0, 1, 0, 0)" gradientUnits="userSpaceOnUse"><stop offset="0" stop-color="#7d43ff" stop-opacity="0"/><stop offset="1" stop-color="#7d43ff"/></linearGradient><linearGradient id="c" x1="929.48" y1="1144.83" x2="635.56" y2="647.88" gradientTransform="matrix(1, 0, 0, 1, 0, 0)" gradientUnits="userSpaceOnUse"><stop offset="0" stop-color="#7d43ff"/><stop offset="1" stop-color="#7d43ff" stop-opacity="0"/></linearGradient></defs><g><polygon class="f" points="321.42 504.25 321.42 913.73 676.03 1118.47 676.03 299.52 321.42 504.25"/><polygon class="e" points="676.03 299.52 676.03 708.99 1030.65 504.25 676.03 299.52"/><polygon class="f" points="1030.65 504.25 676.03 708.99 1030.65 913.73 1030.65 504.25"/><polygon class="d" points="1030.65 913.73 676.03 708.99 676.03 1118.47 1030.65 913.73"/></g><g><path class="f" d="M258.13,1270.13l102.81-28.96v353.64l1.35,.68,116.34-141.37h117.03l-127.17,148.81,136.64,183.99h-121.75l-121.09-169.79-1.35,.68v169.11h-102.81v-516.79Z"/><path class="f" d="M678.36,1289.74c32.47,0,59.52,26.38,59.52,58.85s-27.05,58.85-59.52,58.85-59.53-26.37-59.53-58.85,27.06-58.85,59.53-58.85Zm-51.41,164.38h102.81v332.8h-102.81v-332.8Z"/><path class="f" d="M768.03,1454.12h101.47v30.44l1.35,.68c25.71-20.97,60.89-38.56,102.82-38.56,35.17,0,66.29,12.18,87.26,33.83,20.29,21.64,29.08,50.73,29.08,98.76v207.66h-102.81v-190.75c0-25.03-3.39-37.2-11.5-46.68-8.8-10.14-20.97-14.2-35.18-14.2-26.38,0-51.4,13.52-69.67,27.73v223.9h-102.81v-332.8Z"/></g></svg>